<svg width="129" height="129" viewBox="0 0 129 129" fill="none" xmlns="http://www.w3.org/2000/svg">
<rect width="129" height="129" rx="64.5" fill="#0E100E"/>
<mask id="mask0_10_14" style="mask-type:alpha" maskUnits="userSpaceOnUse" x="-4" y="-4" width="137" height="137">
<rect x="-3.2543" y="-3.2543" width="136.254" height="136.254" rx="68.1272" fill="#D9D9D9"/>
</mask>
<g mask="url(#mask0_10_14)">
<path d="M25.0518 64L10 38L43.1139 19H49.5109C50.8489 23 52.4377 26.5 54.2773 29.5C56.117 32.5 59.5455 34 64.5627 34C69.58 34 73.0084 32.5 74.8481 29.5C76.6878 26.5 78.2766 23 79.6145 19H86.0115L119 38.125L104.074 64L94.6663 58.875V82.875L86.7641 89.75C86.5132 89.9167 86.1787 90.125 85.7606 90.375C85.3425 90.625 84.9662 90.8333 84.6318 91V41.875L100.311 50.5L105.328 41.75L86.1369 30.625C84.13 34.7083 81.1824 37.9583 77.294 40.375C73.4056 42.7917 69.1619 44 64.5627 44C59.9636 44 55.7198 42.7917 51.8314 40.375C47.943 37.9583 44.9954 34.7083 42.9885 30.625L23.672 41.75L28.8147 50.5L44.4937 41.875V71.5C42.7376 71.6667 41.0234 71.9375 39.351 72.3125C37.6786 72.6875 36.0479 73.2083 34.4591 73.875V58.875L25.0518 64ZM27.6858 100.875L21.1634 93.25L32.0759 84C33.9992 82.3333 36.1943 81.0625 38.6611 80.1875C41.1279 79.3125 43.6993 78.875 46.3751 78.875C49.051 78.875 51.6015 79.3125 54.0265 80.1875C56.4515 81.0625 58.6256 82.3333 60.5489 84L75.099 96.375C76.1024 97.2083 77.294 97.8542 78.6738 98.3125C80.0535 98.7708 81.4542 99 82.8757 99C84.3809 99 85.7815 98.7917 87.0777 98.375C88.3738 97.9583 89.5236 97.2917 90.527 96.375L101.44 87L107.962 94.75L97.0495 104C95.1262 105.667 92.9521 106.917 90.527 107.75C88.102 108.583 85.5516 109 82.8757 109C80.1998 109 77.6285 108.583 75.1617 107.75C72.6949 106.917 70.4998 105.667 68.5765 104L54.0265 91.625C53.023 90.7917 51.8732 90.1458 50.5771 89.6875C49.281 89.2292 47.8803 89 46.3751 89C44.9536 89 43.5529 89.2292 42.1732 89.6875C40.7934 90.1458 39.6018 90.7917 38.5984 91.625L27.6858 100.875Z" fill="#F7F7FF"/>
</g>
</svg>
