<svg width="122" height="28" viewBox="0 0 122 28" fill="none" xmlns="http://www.w3.org/2000/svg">
<path d="M107.107 27.0549H103.731V6.20517H106.826V10.5189H107.107C107.733 7.64308 109.921 5.89258 113.578 5.89258C118.392 5.89258 121.111 9.17478 121.111 13.9887C121.111 18.8026 118.454 22.0535 113.609 22.0535C110.108 22.0535 107.858 20.2092 107.232 17.3646H107.107V27.0549ZM107.107 14.2387C107.107 17.4272 109.139 18.9901 112.453 18.9901C115.797 18.9901 117.736 17.7085 117.736 13.9887C117.736 10.2376 115.766 8.98722 112.515 8.98722C109.045 8.98722 107.107 10.6127 107.107 13.9574V14.2387Z" fill="#F7F7FF"/>
<path d="M90.8933 22.0536C84.6415 22.0536 81.078 18.7401 81.078 13.051V0.797424H84.4227V12.8321C84.4227 17.0521 86.2982 18.8026 90.8933 18.8026C95.4884 18.8026 97.3639 17.0521 97.3639 12.8321V0.797424H100.74V13.051C100.74 18.7401 97.1763 22.0536 90.8933 22.0536Z" fill="#F7F7FF"/>
<path d="M78.5137 13.9261H74.2625V9.08099H78.5137V13.9261Z" fill="#F7F7FF"/>
<path d="M72.6197 21.7409H69.0562C65.7115 21.7409 63.6484 20.2718 63.6484 16.4894V9.01852H61.0226V6.20521H63.6484V2.79797H66.9931V6.20521H72.6197V9.01852H66.9931V16.3019C66.9931 18.2087 67.8683 18.7088 69.8064 18.7088H72.6197V21.7409Z" fill="#F7F7FF"/>
<path d="M49.962 21.7409H46.5861V6.20517H49.6807V10.3939H49.8995C50.3684 7.89316 52.0564 5.89258 55.2448 5.89258C58.7771 5.89258 60.3088 8.42456 60.3088 11.3629V13.3947H56.9641V12.0193C56.9641 9.79996 56.0263 8.76841 53.7131 8.76841C51.0561 8.76841 49.962 10.2376 49.962 13.0196V21.7409Z" fill="#F7F7FF"/>
<path d="M43.4599 4.39221H40.084V0.797424H43.4599V4.39221ZM43.4599 21.741H40.084V6.20523H43.4599V21.741Z" fill="#F7F7FF"/>
<path d="M24.0757 21.741H20.6997V0.797424H24.0757V10.9566H24.2632C24.7946 8.33085 26.7014 5.89264 30.6713 5.89264C34.9538 5.89264 37.0482 8.70595 37.0482 12.4883V21.741H33.7035V13.301C33.7035 10.1751 32.2968 8.92477 29.0771 8.92477C25.3886 8.92477 24.0757 10.9253 24.0757 14.2075V21.741Z" fill="#F7F7FF"/>
<path d="M9.51923 22.0535C3.26742 22.0535 0.0790038 19.3027 0.0790038 14.8952V14.7077H3.45498V15.2078C3.45498 17.7085 4.92415 18.9589 9.51923 18.9589C13.5204 18.9589 14.927 18.0836 14.927 16.1143C14.927 14.3013 13.8642 13.6136 11.2072 13.1134L6.08074 12.2695C2.54847 11.6443 0.0477448 10.0188 0.0477448 6.58031C0.0477448 3.54819 2.54847 0.484802 9.05034 0.484802C15.1771 0.484802 17.9592 3.54818 17.9592 7.64312V7.83067H14.6144V7.4243C14.6144 4.86106 13.0828 3.57944 8.73775 3.57944C4.92415 3.57944 3.42372 4.51722 3.42372 6.39276C3.42372 8.20578 4.48653 8.7997 6.95599 9.3311L12.0512 10.2064C16.2399 10.9566 18.303 12.8634 18.303 15.9268C18.303 19.1152 15.7085 22.0535 9.51923 22.0535Z" fill="#F7F7FF"/>
</svg>
